<?xml version="1.0" encoding="UTF-8" standalone="no"?>
<!DOCTYPE svg PUBLIC "-//W3C//DTD SVG 1.1//EN" "http://www.w3.org/Graphics/SVG/1.1/DTD/svg11.dtd">
<svg width="282" height="122" viewBox="0 0 282 122" fill="none" xmlns="http://www.w3.org/2000/svg">
  <path fill-rule="evenodd" clip-rule="evenodd" d="M7.632 55.08C10.192 56.36 13.744 57 18.288 57H44.976C50.288 57 54.352 56.744 57.168 56.232C59.984 55.72 61.904 55.144 62.928 54.504C64.016 53.864 64.56 53.384 64.56 53.064L60.624 46.728C59.216 46.984 55.568 47.24 49.68 47.496C43.856 47.688 35.632 47.784 25.008 47.784H21.072C18.192 47.784 16.176 47.208 15.024 46.056C13.936 44.84 13.392 43.144 13.392 40.968V16.488C13.392 11.944 15.952 9.672 21.072 9.672H25.968C36.144 9.672 43.888 9.8 49.2 10.056C54.576 10.248 57.808 10.44 58.896 10.632L60.816 2.664C60.816 2.152 59.632 1.672 57.264 1.224C54.96 0.711996 51.6 0.455996 47.184 0.455996H18.288C12.08 0.455996 7.6 1.928 4.848 4.872C2.096 7.752 0.720001 12.264 0.720001 18.408V39.816C0.720001 43.592 1.232 46.76 2.256 49.32C3.28 51.88 5.072 53.8 7.632 55.08ZM94.5967 0.552L66.4688 57H80.4847L86.7248 44.808H121.093L126.757 57H141.541L113.509 0.552H94.5967ZM117.541 35.4H90.1807L103.429 9.192H104.389L117.541 35.4ZM203.003 56.808C205.499 57.576 208.027 57.96 210.587 57.96C212.379 57.96 213.947 57.832 215.29 57.576C216.635 57.384 217.594 57.192 218.171 57L220.09 49.224C219.898 49.224 219.227 49.192 218.075 49.128C216.923 49.064 215.451 48.776 213.659 48.264C211.867 47.752 209.819 46.824 207.514 45.48C206.875 45.096 205.979 44.456 204.827 43.56C203.674 42.664 202.395 41.672 200.986 40.584C199.643 39.496 198.331 38.504 197.051 37.608C195.771 36.648 194.715 35.944 193.883 35.496C197.146 35.304 199.771 34.632 201.755 33.48C203.803 32.328 205.37 30.92 206.459 29.256C207.547 27.592 208.283 25.896 208.667 24.168C209.051 22.44 209.243 20.872 209.243 19.464V17.64C209.243 15.848 209.083 13.96 208.763 11.976C208.443 9.992 207.707 8.136 206.555 6.408C205.467 4.616 203.738 3.176 201.37 2.088C199.066 0.999996 195.867 0.455996 191.771 0.455996H149.243L150.202 8.232V57H162.874V35.592H165.85C170.906 35.592 175.098 36.264 178.426 37.608C181.818 38.952 184.923 41.064 187.739 43.944L194.65 50.856C197.786 53.992 200.571 55.976 203.003 56.808ZM183.803 26.76C181.883 26.824 179.706 26.856 177.275 26.856C175.227 26.856 173.018 26.824 170.65 26.76C168.283 26.696 165.691 26.568 162.874 26.376V9.672H189.083C191.898 9.672 193.851 10.376 194.939 11.784C196.027 13.192 196.57 14.92 196.57 16.968V19.176C196.57 21.16 195.995 22.792 194.842 24.072C193.755 25.288 191.803 26.056 188.986 26.376C187.451 26.504 185.723 26.632 183.803 26.76ZM129.76 89.488V122H138.208V95.824H138.848L141.344 98.832L163.616 122H171.744V84.368H163.296V110.608H162.592L160.096 107.152L138.336 84.368H129.12L129.76 89.488ZM183.595 121.168C184.747 121.723 186.39 122 188.523 122H201.387C209.792 122 213.995 121.339 213.995 120.016L211.435 115.856C210.326 115.941 208.854 116.048 207.019 116.176C205.184 116.261 203.158 116.347 200.939 116.432C198.763 116.475 196.523 116.496 194.219 116.496H190.955C188.864 116.496 187.84 115.643 187.883 113.936V110.416C188.694 110.459 190.294 110.565 192.683 110.736C195.115 110.907 198.251 110.992 202.091 110.992H213.291V101.52C213.291 99.5147 212.95 97.9147 212.267 96.72C211.627 95.5253 210.496 94.672 208.875 94.16C207.296 93.6053 205.099 93.328 202.283 93.328H188.523C186.432 93.328 184.79 93.6267 183.595 94.224C182.443 94.8213 181.611 95.568 181.099 96.464C180.63 97.36 180.331 98.2773 180.203 99.216C180.118 100.112 180.075 100.88 180.075 101.52V113.808C180.075 114.576 180.118 115.429 180.203 116.368C180.331 117.307 180.63 118.203 181.099 119.056C181.611 119.909 182.443 120.613 183.595 121.168ZM205.483 105.488H187.883V101.392C187.883 99.6853 188.907 98.832 190.955 98.832H198.699C200.96 98.832 202.56 98.8747 203.499 98.96C204.438 99.0453 204.992 99.2587 205.163 99.6C205.376 99.9413 205.483 100.539 205.483 101.392V105.488ZM218.482 119.44L217.202 122H226.93L234.738 112.4H235.378L243.251 122H253.043L240.307 107.6L252.018 95.376L253.043 93.328H243.314L235.378 103.248H234.738L226.93 93.328H217.202L229.555 107.6L218.482 119.44ZM262.008 119.952C263.202 121.317 265.421 122 268.664 122H270.647C272.823 122 274.829 121.936 276.664 121.808C278.498 121.637 279.863 121.488 280.759 121.36L280.12 116.496H271.095C270.072 116.496 269.303 116.325 268.792 115.984C268.28 115.643 268.023 114.939 268.023 113.872V98.832H281.336V93.328H268.023V84.56H261.496L260.216 91.408C260.045 92.176 259.767 92.688 259.384 92.944C259.042 93.2 258.466 93.328 257.655 93.328H254.967V98.832H260.216V113.808C260.216 116.539 260.813 118.587 262.008 119.952Z" fill="white"/>
</svg>

